<svg xmlns="http://www.w3.org/2000/svg" viewBox="0 0 460.56 87.74"><defs><style>.cls-1{fill:#1c9ad6;}.cls-2{fill:#4d4d4f;}</style></defs><title>ring_2</title><g id="Слой_2" data-name="Слой 2"><g id="Layer_1" data-name="Layer 1"><path class="cls-1" d="M407.37,35a9.29,9.29,0,0,0-9.28,9.28v3.2h18.56v-3.2A9.29,9.29,0,0,0,407.37,35Z"/><path class="cls-1" d="M451.56,0H186a9,9,0,0,0-9,9V78.74a9,9,0,0,0,9,9H451.56a9,9,0,0,0,9-9V9A9,9,0,0,0,451.56,0Zm-201,52.06a15.87,15.87,0,1,1-31.74,0V19.93a1.2,1.2,0,0,1,.38-.93A1.32,1.32,0,0,1,221,19a1.2,1.2,0,0,1,.38.93V52.06a13.31,13.31,0,0,0,26.62,0V19.93a1.2,1.2,0,0,1,.38-.93,1.32,1.32,0,0,1,1.79,0,1.2,1.2,0,0,1,.38.93ZM283.8,66.92a1.21,1.21,0,0,1-.88.38,1.09,1.09,0,0,1-1-.5L269.42,50.1l-5.73,6.7V66a1.21,1.21,0,0,1-.38.93,1.31,1.31,0,0,1-1.79,0,1.2,1.2,0,0,1-.38-.93V19.93a1.2,1.2,0,0,1,.38-.93,1.32,1.32,0,0,1,1.79,0,1.2,1.2,0,0,1,.38.93V53L280.34,33.5a1.18,1.18,0,0,1,.94-.45,1.3,1.3,0,0,1,1.26,1.26,1.1,1.1,0,0,1-.32.82l-11.14,13,12.84,17.13a1.15,1.15,0,0,1,.26.75A1.19,1.19,0,0,1,283.8,66.92Zm25.88-29.77a1.34,1.34,0,0,1-.93.38,3.17,3.17,0,0,1-1.28-.7A8.39,8.39,0,0,0,302.16,35a7.17,7.17,0,0,0-5.89,2.59,11,11,0,0,0-2.11,7.14V66a1.2,1.2,0,0,1-.38.93,1.32,1.32,0,0,1-1.79,0,1.2,1.2,0,0,1-.38-.93V44.7a13.74,13.74,0,0,1,2.75-8.83,9.4,9.4,0,0,1,7.81-3.46,11.64,11.64,0,0,1,4.06.8,9,9,0,0,1,3.42,2.14,1.29,1.29,0,0,1,.45.9A1.19,1.19,0,0,1,309.68,37.15Zm28.45,20.42a9.63,9.63,0,0,1-3.2,7.46,11.09,11.09,0,0,1-7.74,2.91,12,12,0,0,1-7.81-2.59,8.68,8.68,0,0,1-3.2-7.14,8.25,8.25,0,0,1,2.78-6.5,15.61,15.61,0,0,1,7.14-3.42l9.47-2V42.78a7.7,7.7,0,0,0-2.11-5.7A8.32,8.32,0,0,0,327.31,35a9.7,9.7,0,0,0-3.58.61,6.68,6.68,0,0,0-2.24,1.31q-.7.71-1.34,1.31a1.77,1.77,0,0,1-1.09.61,1.28,1.28,0,0,1-.9-.35,1.13,1.13,0,0,1-.38-.86,2.56,2.56,0,0,1,.77-1.47,11,11,0,0,1,8.77-3.71,10.8,10.8,0,0,1,7.94,2.85,10.11,10.11,0,0,1,2.88,7.52ZM351,66a1.2,1.2,0,0,1-.38.93,1.32,1.32,0,0,1-1.79,0,1.2,1.2,0,0,1-.38-.93V34.33a1.2,1.2,0,0,1,.38-.93,1.31,1.31,0,0,1,1.79,0,1.2,1.2,0,0,1,.38.93Zm.13-43.33a2,2,0,1,1,.58-1.41A1.92,1.92,0,0,1,351.12,22.69ZM385.29,66a1.2,1.2,0,0,1-.38.93,1.32,1.32,0,0,1-1.79,0,1.2,1.2,0,0,1-.38-.93V44.25a9.28,9.28,0,0,0-18.56,0V66a1.2,1.2,0,0,1-.38.93,1.32,1.32,0,0,1-1.79,0,1.2,1.2,0,0,1-.38-.93V44.25a11.84,11.84,0,0,1,23.68,0Zm33.92-17.28A1.31,1.31,0,0,1,417.93,50H398.09v6.08a8.6,8.6,0,0,0,3,6.53A9.9,9.9,0,0,0,408,65.37a12.31,12.31,0,0,0,4.38-.86,7,7,0,0,0,3.36-2.4,1.3,1.3,0,0,1,2.37.7,3.08,3.08,0,0,1-.83,1.47A12.18,12.18,0,0,1,408,67.93a12.51,12.51,0,0,1-8.7-3.46,11,11,0,0,1-3.78-8.38V44.25a11.84,11.84,0,0,1,23.68,0Z"/><path class="cls-1" d="M320.85,53.63a5.86,5.86,0,0,0-2.11,4.59,6.43,6.43,0,0,0,2.34,5.2,9.23,9.23,0,0,0,6.11,1.95,8.52,8.52,0,0,0,6-2.2,7.24,7.24,0,0,0,2.4-5.58V48.92l-9.08,2A12.9,12.9,0,0,0,320.85,53.63Z"/><path class="cls-1" d="M43.79,6.7A4.68,4.68,0,1,1,39.12,2,4.68,4.68,0,0,1,43.79,6.7"/><path class="cls-2" d="M28.17,24.39a2.62,2.62,0,0,1-.82,1.92,2.73,2.73,0,0,1-2,.82,2.85,2.85,0,0,1-1.92-.82l-.09-.09a.85.85,0,0,0-.18-.14.68.68,0,0,1-.19-.14,10.75,10.75,0,0,0-7-2.46,9.44,9.44,0,0,0-7.71,3.37q-2.78,3.38-2.78,9.57V66.09a2.46,2.46,0,0,1-.87,2.05,3,3,0,0,1-1.87.68,3,3,0,0,1-1.87-.68A2.45,2.45,0,0,1,0,66.09V36.42a24.68,24.68,0,0,1,1-7.16,17.16,17.16,0,0,1,3-5.83,14.4,14.4,0,0,1,5-4A15.63,15.63,0,0,1,16,18a17.39,17.39,0,0,1,6,1.18,14.55,14.55,0,0,1,5.29,3.28,2.71,2.71,0,0,1,.91,1.91"/><path class="cls-2" d="M41.85,66.09A2.46,2.46,0,0,1,41,68.14a2.89,2.89,0,0,1-3.74,0,2.45,2.45,0,0,1-.87-2.05V21.65a2.46,2.46,0,0,1,.87-2.05,2.9,2.9,0,0,1,3.74,0,2.47,2.47,0,0,1,.87,2.05Z"/><path class="cls-2" d="M89.27,66.09a2.46,2.46,0,0,1-.87,2.05,2.89,2.89,0,0,1-3.74,0,2.45,2.45,0,0,1-.87-2.05V35.79a12,12,0,0,0-1-4.79,12.38,12.38,0,0,0-6.56-6.57,12.46,12.46,0,0,0-9.57,0A12.39,12.39,0,0,0,60.13,31a12,12,0,0,0-1,4.79v30.3a2.45,2.45,0,0,1-.87,2.05,2.89,2.89,0,0,1-3.74,0,2.45,2.45,0,0,1-.87-2.05V35.79a17.3,17.3,0,0,1,1.42-6.93,17.6,17.6,0,0,1,9.39-9.44,17.81,17.81,0,0,1,13.91,0,17.48,17.48,0,0,1,9.43,9.44,17.35,17.35,0,0,1,1.42,6.93Z"/><path class="cls-2" d="M135.77,69.28a17.25,17.25,0,0,1-1.42,7,17.61,17.61,0,0,1-9.44,9.39A17.36,17.36,0,0,1,118,87.06a20.93,20.93,0,0,1-4-.41,22.91,22.91,0,0,1-4.15-1.23,18,18,0,0,1-3.83-2.1,11.43,11.43,0,0,1-2.87-2.92,2.6,2.6,0,0,1-.45-1.55,2.5,2.5,0,0,1,.87-2,2.85,2.85,0,0,1,2-.78,3.13,3.13,0,0,1,1.14.23,2.22,2.22,0,0,1,1.05,1,.26.26,0,0,0,.09.18l.36.37a10.22,10.22,0,0,0,4.51,2.87,17.26,17.26,0,0,0,5.33.87,12,12,0,0,0,4.79-1,12.38,12.38,0,0,0,6.56-6.56,12,12,0,0,0,1-4.79V63a17.72,17.72,0,0,1-5.56,3.6A17.47,17.47,0,0,1,118,67.91a17.24,17.24,0,0,1-7-1.41,17.75,17.75,0,0,1-9.39-9.39,17.21,17.21,0,0,1-1.42-7V35.79a17.3,17.3,0,0,1,1.42-6.93,17.85,17.85,0,0,1,3.78-5.66A18.08,18.08,0,0,1,111,19.42a17.81,17.81,0,0,1,13.9,0,17.48,17.48,0,0,1,9.44,9.44,17.35,17.35,0,0,1,1.42,6.93V69.28Zm-5.47-33.49a12,12,0,0,0-1-4.79,12.38,12.38,0,0,0-6.56-6.56,12.45,12.45,0,0,0-9.57,0A12.4,12.4,0,0,0,106.63,31a12.08,12.08,0,0,0-1,4.79V50.13a12.07,12.07,0,0,0,1,4.79,12.41,12.41,0,0,0,2.65,3.92,12.28,12.28,0,0,0,3.92,2.64,12.45,12.45,0,0,0,9.57,0,12.38,12.38,0,0,0,6.56-6.56,12,12,0,0,0,1-4.79Z"/></g></g></svg>